<svg xmlns="http://www.w3.org/2000/svg" xmlns:xlink="http://www.w3.org/1999/xlink" width="321" zoomAndPan="magnify" viewBox="0 0 240.75 141.750002" height="188" preserveAspectRatio="xMidYMid meet" version="1.0"><defs><g/><clipPath id="b257ba7cc3"><path d="M 0.0859375 0 L 240.414062 0 L 240.414062 141.5 L 0.0859375 141.5 Z M 0.0859375 0 " clip-rule="nonzero"/></clipPath><clipPath id="2473e662f9"><path d="M 77.875 28 L 101 28 L 101 34 L 77.875 34 Z M 77.875 28 " clip-rule="nonzero"/></clipPath><clipPath id="2623f2ebad"><path d="M 80 28 L 116 28 L 116 83.917969 L 80 83.917969 Z M 80 28 " clip-rule="nonzero"/></clipPath><clipPath id="7917f829f7"><path d="M 103 28 L 139 28 L 139 83.917969 L 103 83.917969 Z M 103 28 " clip-rule="nonzero"/></clipPath><clipPath id="9cf6a0da5e"><path d="M 147 28 L 162.476562 28 L 162.476562 34 L 147 34 Z M 147 28 " clip-rule="nonzero"/></clipPath><clipPath id="05eb195ad8"><path d="M 213.683594 100.335938 L 240.414062 100.335938 L 240.414062 134 L 213.683594 134 Z M 213.683594 100.335938 " clip-rule="nonzero"/></clipPath><clipPath id="2b126594b8"><path d="M 1.464844 30.320312 L 26.921875 30.320312 L 26.921875 37 L 1.464844 37 Z M 1.464844 30.320312 " clip-rule="nonzero"/></clipPath><clipPath id="802cbe5202"><path d="M 1.464844 35 L 6 35 L 6 65.507812 L 1.464844 65.507812 Z M 1.464844 35 " clip-rule="nonzero"/></clipPath><clipPath id="46d2d5afdc"><path d="M 6 37 L 26.921875 37 L 26.921875 65.507812 L 6 65.507812 Z M 6 37 " clip-rule="nonzero"/></clipPath></defs><g clip-path="url(#b257ba7cc3)"><path fill="#ffffff" d="M 0.0859375 0 L 240.414062 0 L 240.414062 141.5 L 0.0859375 141.5 Z M 0.0859375 0 " fill-opacity="1" fill-rule="nonzero"/><path fill="#317ee6" d="M 0.0859375 0 L 240.414062 0 L 240.414062 141.5 L 0.0859375 141.5 Z M 0.0859375 0 " fill-opacity="1" fill-rule="nonzero"/></g><g clip-path="url(#2473e662f9)"><path fill="#81c408" d="M 97.351562 33.554688 L 80.53125 33.554688 C 79.066406 33.554688 77.875 32.363281 77.875 30.898438 C 77.875 29.433594 79.066406 28.246094 80.53125 28.246094 L 97.351562 28.246094 C 98.816406 28.246094 100.007812 29.433594 100.007812 30.898438 C 100.007812 32.363281 98.816406 33.554688 97.351562 33.554688 Z M 97.351562 33.554688 " fill-opacity="1" fill-rule="nonzero"/></g><path fill="#81c408" d="M 138.042969 33.554688 L 127.425781 33.554688 C 125.960938 33.554688 124.769531 32.363281 124.769531 30.898438 C 124.769531 29.433594 125.960938 28.246094 127.425781 28.246094 L 138.042969 28.246094 C 139.507812 28.246094 140.695312 29.433594 140.695312 30.898438 C 140.695312 32.363281 139.507812 33.554688 138.042969 33.554688 Z M 138.042969 33.554688 " fill-opacity="1" fill-rule="nonzero"/><path fill="#81c408" d="M 111.496094 76.011719 C 111.097656 76.011719 110.691406 75.925781 110.308594 75.734375 C 109 75.074219 108.464844 73.484375 109.125 72.171875 L 130.359375 29.714844 C 131.015625 28.402344 132.601562 27.875 133.921875 28.527344 C 135.230469 29.1875 135.765625 30.777344 135.109375 32.089844 L 113.871094 74.546875 C 113.40625 75.476562 112.46875 76.011719 111.496094 76.011719 Z M 111.496094 76.011719 " fill-opacity="1" fill-rule="nonzero"/><g clip-path="url(#2623f2ebad)"><path fill="#81c408" d="M 107.960938 83.089844 C 106.953125 83.089844 106.035156 82.523438 105.585938 81.621094 L 80.808594 32.074219 C 80.15625 30.765625 80.6875 29.171875 82 28.515625 C 83.3125 27.855469 84.902344 28.394531 85.558594 29.699219 L 107.960938 74.5 L 109.414062 71.589844 L 89.65625 32.074219 C 89.003906 30.765625 89.535156 29.171875 90.847656 28.515625 C 92.15625 27.855469 93.75 28.394531 94.40625 29.699219 L 114.757812 70.398438 C 115.128906 71.148438 115.128906 72.023438 114.757812 72.773438 L 110.332031 81.621094 C 109.882812 82.523438 108.964844 83.089844 107.960938 83.089844 Z M 107.960938 83.089844 " fill-opacity="1" fill-rule="nonzero"/></g><g clip-path="url(#7917f829f7)"><path fill="#81c408" d="M 130.964844 83.089844 C 129.957031 83.089844 129.039062 82.523438 128.589844 81.621094 L 103.816406 32.074219 C 103.160156 30.765625 103.691406 29.171875 105.003906 28.515625 C 106.3125 27.855469 107.90625 28.394531 108.5625 29.699219 L 130.964844 74.5 L 132.417969 71.589844 L 112.664062 32.074219 C 112.003906 30.761719 112.539062 29.167969 113.851562 28.515625 C 115.160156 27.855469 116.753906 28.394531 117.414062 29.699219 L 137.761719 70.398438 C 138.132812 71.148438 138.132812 72.023438 137.761719 72.773438 L 133.339844 81.621094 C 132.890625 82.523438 131.96875 83.089844 130.964844 83.089844 Z M 130.964844 83.089844 " fill-opacity="1" fill-rule="nonzero"/></g><path fill="#81c408" d="M 120.355469 33.554688 L 102.648438 33.554688 C 101.183594 33.554688 99.996094 32.363281 99.996094 30.898438 C 99.996094 29.433594 101.183594 28.246094 102.648438 28.246094 L 120.355469 28.246094 C 121.820312 28.246094 123.011719 29.433594 123.011719 30.898438 C 123.011719 32.363281 121.820312 33.554688 120.355469 33.554688 Z M 120.355469 33.554688 " fill-opacity="1" fill-rule="nonzero"/><g clip-path="url(#9cf6a0da5e)"><path fill="#81c408" d="M 160.160156 33.554688 L 150.429688 33.554688 C 148.964844 33.554688 147.773438 32.363281 147.773438 30.898438 C 147.773438 29.433594 148.964844 28.246094 150.429688 28.246094 L 160.160156 28.246094 C 161.628906 28.246094 162.816406 29.433594 162.816406 30.898438 C 162.816406 32.363281 161.628906 33.554688 160.160156 33.554688 Z M 160.160156 33.554688 " fill-opacity="1" fill-rule="nonzero"/></g><path fill="#81c408" d="M 134.5 76.011719 C 134.101562 76.011719 133.695312 75.925781 133.3125 75.734375 C 132.003906 75.074219 131.46875 73.484375 132.128906 72.171875 L 153.363281 29.714844 C 154.019531 28.402344 155.605469 27.875 156.925781 28.527344 C 158.238281 29.1875 158.769531 30.777344 158.113281 32.089844 L 136.878906 74.546875 C 136.410156 75.476562 135.472656 76.011719 134.5 76.011719 Z M 134.5 76.011719 " fill-opacity="1" fill-rule="nonzero"/><g clip-path="url(#05eb195ad8)"><path fill="#81c408" d="M 233.226562 100.550781 C 232.605469 100.449219 231.972656 100.382812 231.328125 100.355469 C 231.078125 100.339844 230.820312 100.335938 230.5625 100.335938 C 225.515625 100.335938 220.976562 102.574219 217.898438 106.113281 C 215.339844 109.042969 213.78125 112.863281 213.753906 117.039062 C 213.699219 126.246094 221.148438 133.839844 230.355469 133.953125 C 237.445312 134.039062 243.558594 129.710938 246.105469 123.546875 C 246.925781 121.574219 247.375 119.410156 247.375 117.144531 C 247.375 108.785156 241.238281 101.828125 233.226562 100.550781 Z M 229.445312 132.5625 C 221.746094 132.019531 215.554688 125.722656 215.128906 118.015625 C 214.917969 114.160156 216.125 110.597656 218.269531 107.789062 C 218.28125 107.769531 218.457031 107.808594 218.539062 107.933594 C 218.714844 108.191406 218.300781 108.589844 218.066406 109.265625 C 217.792969 110.046875 217.855469 110.929688 218.078125 111.003906 C 218.195312 111.042969 218.367188 110.867188 218.433594 110.78125 C 218.574219 110.601562 218.523438 110.480469 218.652344 110.265625 C 218.761719 110.078125 218.964844 109.886719 219.039062 109.925781 C 219.15625 109.984375 218.851562 110.496094 218.882812 111.261719 C 218.898438 111.660156 219.003906 111.957031 219.105469 112.222656 C 219.234375 112.59375 219.398438 113.046875 219.785156 113.429688 C 220.238281 113.886719 220.480469 113.722656 221.082031 114.285156 C 221.335938 114.527344 221.328125 114.585938 221.617188 114.835938 C 221.769531 114.960938 222.074219 115.21875 222.53125 115.433594 C 223.039062 115.667969 223.1875 115.601562 223.335938 115.800781 C 223.53125 116.050781 223.519531 116.464844 223.371094 116.761719 C 223.125 117.269531 222.617188 117.148438 222.359375 117.652344 C 222.160156 118.050781 222.289062 118.5 222.335938 118.667969 C 222.378906 118.8125 222.46875 119.136719 222.75 119.386719 C 223.105469 119.707031 223.355469 119.539062 223.621094 119.792969 C 223.902344 120.0625 223.726562 120.355469 223.933594 121.257812 C 224.070312 121.847656 224.140625 122.152344 224.398438 122.402344 C 224.828125 122.824219 225.246094 122.585938 225.5625 122.96875 C 225.671875 123.101562 225.746094 123.292969 225.695312 124.367188 C 225.632812 125.671875 225.515625 125.617188 225.582031 126.042969 C 225.683594 126.667969 225.910156 126.65625 226.253906 127.738281 C 226.339844 127.996094 226.449219 128.339844 226.539062 128.8125 C 226.699219 129.667969 226.625 130 226.917969 130.289062 C 227.097656 130.46875 227.40625 130.617188 227.6875 130.542969 C 227.90625 130.492188 228.105469 130.296875 228.492188 129.253906 C 228.957031 127.992188 228.792969 127.941406 229.125 127.324219 C 229.464844 126.691406 229.707031 126.613281 229.917969 125.96875 C 230.089844 125.4375 229.976562 125.335938 230.164062 125.027344 C 230.464844 124.519531 230.886719 124.605469 231.503906 124.101562 C 231.671875 123.964844 232.203125 123.535156 232.421875 122.84375 C 232.660156 122.078125 232.292969 121.71875 232.640625 121.011719 C 232.839844 120.601562 233 120.652344 233.117188 120.292969 C 233.359375 119.558594 232.890625 118.820312 232.789062 118.667969 C 232.347656 118.015625 231.683594 117.785156 231.539062 117.738281 C 230.796875 117.5 230.507812 117.828125 229.699219 117.519531 C 229.472656 117.433594 228.9375 117.230469 228.894531 116.875 C 228.851562 116.570312 229.203125 116.402344 229.136719 116.089844 C 229.101562 115.925781 228.9375 115.816406 228.613281 115.605469 C 228.011719 115.214844 227.757812 115.242188 227.523438 114.921875 C 227.351562 114.675781 227.457031 114.609375 227.308594 114.433594 C 226.953125 114.011719 226.105469 114.066406 225.574219 114.214844 C 224.992188 114.371094 224.753906 114.652344 224.339844 114.527344 C 224.160156 114.476562 224.125 114.40625 224.019531 114.347656 C 224.019531 114.347656 223.964844 114.320312 223.886719 114.300781 C 223.664062 114.242188 223.207031 114.695312 222.746094 114.710938 C 222.289062 114.726562 221.878906 114.300781 221.773438 114.164062 C 221.753906 114.136719 221.734375 114.109375 221.734375 114.109375 C 221.6875 114.03125 221.65625 113.925781 221.542969 113.566406 C 221.246094 112.617188 221.21875 112.566406 221.167969 112.503906 C 220.847656 112.132812 220.492188 112.3125 220.289062 111.980469 C 220.097656 111.675781 220.207031 111.210938 220.382812 110.925781 C 220.613281 110.5625 220.886719 110.621094 221.101562 110.199219 C 221.175781 110.058594 221.148438 110.039062 221.308594 109.648438 C 221.507812 109.167969 221.570312 109.125 221.617188 109.109375 C 221.851562 109.019531 222.191406 109.3125 222.359375 109.511719 C 222.566406 109.761719 222.53125 109.894531 222.691406 110.085938 C 222.980469 110.433594 223.5 110.597656 223.628906 110.464844 C 223.722656 110.367188 223.558594 110.199219 223.507812 109.671875 C 223.496094 109.53125 223.476562 109.285156 223.535156 108.988281 C 223.554688 108.886719 223.621094 108.597656 223.914062 108.195312 C 224.128906 107.886719 224.609375 107.207031 225.460938 106.953125 C 226.160156 106.734375 226.578125 106.945312 226.78125 106.652344 C 226.957031 106.40625 226.6875 106.101562 226.9375 105.683594 C 226.984375 105.609375 227.074219 105.457031 227.246094 105.398438 C 227.421875 105.339844 227.574219 105.410156 227.757812 105.46875 C 228.007812 105.550781 228.613281 105.703125 228.757812 105.53125 C 228.921875 105.339844 228.574219 104.609375 227.988281 104.242188 C 227.898438 104.183594 227.289062 103.808594 226.574219 104.035156 C 226.476562 104.0625 225.929688 104.230469 225.683594 104.714844 C 225.5625 104.953125 225.625 105.050781 225.511719 105.167969 C 225.136719 105.558594 223.796875 105.195312 223.726562 104.691406 C 223.675781 104.304688 224.382812 103.914062 224.515625 103.839844 C 225.011719 103.5625 225.546875 103.539062 225.90625 103.523438 C 226.304688 103.503906 226.253906 103.558594 226.503906 103.53125 C 227.097656 103.457031 227.574219 103.144531 228 102.808594 C 228.3125 102.566406 228.558594 102.277344 228.828125 102.34375 C 229.011719 102.390625 229.121094 102.5625 229.207031 102.699219 C 229.457031 103.082031 229.351562 103.328125 229.515625 103.433594 C 229.738281 103.574219 230.242188 103.324219 230.527344 102.945312 C 230.804688 102.578125 230.742188 102.269531 230.859375 101.710938 C 230.859375 101.707031 230.859375 101.703125 230.863281 101.691406 C 231.78125 101.707031 232.679688 101.804688 233.554688 101.976562 C 234.410156 102.144531 235.132812 102.710938 235.492188 103.507812 L 235.5 103.519531 C 235.558594 103.652344 235.890625 104.402344 235.640625 104.617188 C 235.398438 104.832031 234.78125 104.347656 234.558594 104.582031 C 234.425781 104.71875 234.46875 105.058594 234.644531 105.253906 C 234.929688 105.566406 235.421875 105.289062 235.707031 105.605469 C 235.835938 105.753906 235.839844 105.941406 235.847656 106.203125 C 235.871094 106.78125 235.597656 107.015625 235.742188 107.316406 C 235.824219 107.484375 235.980469 107.558594 236.105469 107.621094 C 236.578125 107.847656 237.261719 107.722656 237.597656 107.328125 C 237.871094 107 237.667969 106.777344 237.9375 106.304688 C 238.214844 105.820312 238.78125 105.433594 239.050781 105.570312 C 239.347656 105.722656 239.042969 106.402344 239.480469 106.804688 C 239.675781 106.984375 239.929688 107.015625 240.308594 107.058594 C 240.917969 107.132812 241.121094 106.945312 241.539062 107.117188 C 241.644531 107.164062 241.878906 107.261719 242.039062 107.507812 C 242.0625 107.546875 242.3125 107.9375 242.164062 108.292969 C 241.996094 108.699219 241.433594 108.765625 241.097656 108.804688 C 240.882812 108.828125 240.140625 108.917969 239.894531 108.535156 C 239.707031 108.257812 239.9375 107.960938 239.734375 107.753906 C 239.636719 107.660156 239.496094 107.636719 239.015625 107.667969 C 238.453125 107.707031 238.171875 107.730469 237.867188 107.816406 C 237.3125 107.972656 236.023438 108.332031 235.875 109.183594 C 235.800781 109.625 236.039062 110.152344 236.355469 110.453125 C 236.613281 110.707031 236.804688 110.679688 236.949219 110.941406 C 237.191406 111.375 236.945312 111.929688 236.914062 112.003906 C 236.671875 112.535156 236.238281 112.65625 236.289062 112.929688 C 236.320312 113.101562 236.523438 113.195312 236.742188 113.296875 C 237.367188 113.589844 237.792969 113.375 237.9375 113.617188 C 238.066406 113.824219 237.757812 114.023438 237.867188 114.457031 C 237.902344 114.597656 237.933594 114.582031 238.132812 114.96875 C 238.378906 115.441406 238.324219 115.460938 238.425781 115.570312 C 238.492188 115.644531 239.011719 115.933594 239.648438 115.699219 C 240.164062 115.511719 240.253906 115.171875 240.527344 115.226562 C 240.753906 115.273438 240.742188 115.503906 240.992188 115.691406 C 241.46875 116.046875 242.160156 115.507812 242.394531 115.761719 C 242.652344 116.050781 241.875 116.824219 242.199219 117.433594 C 242.351562 117.71875 242.617188 117.738281 242.652344 118.03125 C 242.675781 118.238281 242.558594 118.339844 242.417969 118.730469 C 242.417969 118.730469 242.316406 119.019531 242.246094 119.414062 C 242.097656 120.289062 242.566406 120.585938 242.417969 121.390625 C 242.402344 121.5 242.335938 121.773438 242.246094 122.085938 C 242.207031 122.234375 242.167969 122.363281 242.105469 122.539062 C 241.976562 122.867188 241.929688 122.890625 241.847656 123.125 C 241.769531 123.335938 241.734375 123.492188 241.683594 123.78125 C 241.574219 124.453125 241.515625 124.789062 241.609375 125.054688 C 241.699219 125.3125 241.953125 125.75 242.296875 125.773438 C 242.796875 125.808594 243 124.933594 243.703125 124.273438 C 243.957031 124.03125 244.242188 123.871094 244.53125 123.773438 C 241.894531 129.304688 236.070312 133.03125 229.445312 132.5625 Z M 229.445312 132.5625 " fill-opacity="1" fill-rule="nonzero"/></g><path fill="#ff66c4" d="M 4.140625 32.667969 C 3.914062 32.898438 3.789062 33.207031 3.796875 33.53125 C 3.808594 34.183594 4.347656 34.710938 4.996094 34.710938 L 24.726562 34.710938 C 24.515625 34.328125 24.402344 33.925781 24.402344 33.511719 C 24.402344 33.097656 24.515625 32.695312 24.726562 32.3125 L 5 32.3125 C 4.675781 32.308594 4.367188 32.4375 4.140625 32.667969 Z M 4.140625 32.667969 " fill-opacity="1" fill-rule="evenodd"/><g clip-path="url(#2b126594b8)"><path fill="#ff66c4" d="M 4.996094 31.457031 L 25.578125 31.457031 C 25.585938 31.457031 25.59375 31.457031 25.601562 31.457031 L 26.394531 31.457031 C 26.707031 31.457031 26.972656 31.226562 26.988281 30.929688 C 27 30.761719 26.941406 30.605469 26.824219 30.484375 C 26.71875 30.382812 26.574219 30.320312 26.425781 30.320312 L 4.660156 30.320312 C 2.898438 30.320312 1.46875 31.753906 1.46875 33.511719 C 1.46875 35.269531 2.898438 36.699219 4.660156 36.699219 L 26.394531 36.699219 C 26.710938 36.699219 26.972656 36.46875 26.992188 36.171875 C 27.003906 36.003906 26.945312 35.847656 26.828125 35.730469 C 26.71875 35.621094 26.578125 35.5625 26.425781 35.5625 L 25.621094 35.5625 C 25.609375 35.566406 25.601562 35.566406 25.59375 35.566406 L 25.570312 35.5625 L 5 35.5625 C 3.886719 35.5625 2.964844 34.660156 2.945312 33.546875 C 2.9375 32.988281 3.148438 32.464844 3.539062 32.070312 C 3.921875 31.675781 4.445312 31.457031 4.996094 31.457031 Z M 4.996094 31.457031 " fill-opacity="1" fill-rule="evenodd"/></g><g clip-path="url(#802cbe5202)"><path fill="#ff66c4" d="M 1.46875 35.988281 L 1.46875 63.15625 C 1.46875 64.566406 2.570312 65.746094 3.980469 65.839844 C 4.027344 65.84375 4.097656 65.847656 4.160156 65.847656 L 5.386719 65.847656 L 5.386719 37.554688 L 4.65625 37.554688 C 3.363281 37.554688 2.207031 36.941406 1.46875 35.988281 Z M 1.46875 35.988281 " fill-opacity="1" fill-rule="evenodd"/></g><path fill="#ff66c4" d="M 21.882812 49.488281 C 21.800781 49.828125 21.585938 50.128906 21.269531 50.335938 C 21.144531 50.417969 20.96875 50.746094 20.957031 50.882812 C 20.941406 51.0625 21.089844 51.25 21.238281 51.367188 L 21.25 51.378906 C 21.429688 51.523438 21.800781 51.820312 21.6875 52.273438 C 21.632812 52.496094 21.472656 52.632812 21.378906 52.714844 L 21.359375 52.730469 C 21.230469 52.84375 21.242188 53.058594 21.296875 53.484375 C 22.683594 52.214844 23.550781 50.390625 23.550781 48.371094 C 23.550781 47.207031 23.261719 46.109375 22.753906 45.144531 C 22.609375 45.363281 22.40625 45.535156 22.226562 45.683594 C 22.167969 45.730469 22.113281 45.78125 22.058594 45.828125 C 21.582031 46.257812 21.351562 46.949219 21.476562 47.582031 C 21.527344 47.847656 21.613281 48.019531 21.703125 48.203125 C 21.855469 48.519531 22.023438 48.875 21.882812 49.488281 Z M 21.882812 49.488281 " fill-opacity="1" fill-rule="evenodd"/><path fill="#ff66c4" d="M 17.75 46.339844 C 18.355469 46.621094 18.753906 47.261719 18.742188 47.929688 C 18.730469 48.597656 18.304688 49.222656 17.691406 49.480469 C 17.652344 49.496094 17.617188 49.511719 17.578125 49.523438 C 17.527344 49.542969 17.453125 49.574219 17.433594 49.589844 C 17.417969 49.605469 17.402344 49.664062 17.378906 49.757812 C 17.164062 50.660156 17.132812 51.011719 17.308594 51.949219 C 17.382812 52.34375 17.488281 52.9375 17.085938 53.355469 C 16.882812 53.566406 16.625 53.652344 16.355469 53.652344 C 16.015625 53.652344 15.664062 53.511719 15.398438 53.292969 C 15.25 53.171875 15.128906 53.042969 15.007812 52.914062 C 14.859375 52.753906 14.714844 52.601562 14.558594 52.511719 C 14.40625 52.425781 14.210938 52.378906 14 52.332031 C 13.757812 52.273438 13.480469 52.210938 13.222656 52.066406 C 12.683594 51.761719 12.496094 51.242188 12.328125 50.78125 C 12.257812 50.59375 12.195312 50.410156 12.109375 50.25 L 12.09375 50.226562 C 11.949219 49.964844 11.695312 50.007812 11.617188 50.027344 C 11.460938 50.066406 11.289062 50.195312 11.289062 50.441406 C 11.285156 50.652344 11.285156 50.859375 11.285156 51.066406 C 11.28125 51.371094 11.171875 51.648438 11.074219 51.894531 C 11.042969 51.976562 11.011719 52.050781 10.988281 52.121094 C 10.96875 52.1875 10.941406 52.25 10.914062 52.3125 C 12.167969 54.121094 14.253906 55.304688 16.613281 55.304688 C 18.050781 55.304688 19.386719 54.867188 20.496094 54.113281 C 20.5 53.960938 20.476562 53.792969 20.453125 53.613281 C 20.386719 53.128906 20.308594 52.527344 20.785156 52.101562 C 20.761719 52.078125 20.734375 52.058594 20.714844 52.042969 L 20.703125 52.03125 C 20.292969 51.703125 20.070312 51.246094 20.109375 50.808594 C 20.140625 50.445312 20.429688 49.867188 20.796875 49.625 C 20.929688 49.539062 21.023438 49.417969 21.050781 49.289062 C 21.125 48.976562 21.066406 48.851562 20.933594 48.578125 C 20.835938 48.375 20.710938 48.121094 20.636719 47.746094 C 20.457031 46.824219 20.789062 45.824219 21.484375 45.195312 C 21.550781 45.140625 21.613281 45.085938 21.679688 45.03125 C 21.875 44.867188 22.078125 44.699219 22.085938 44.550781 C 22.09375 44.480469 22.058594 44.375 22.027344 44.273438 L 22.019531 44.253906 C 21.980469 44.132812 21.941406 44.015625 21.902344 43.894531 C 21.199219 43.0625 20.300781 42.402344 19.28125 41.972656 C 19.285156 42.046875 19.289062 42.117188 19.292969 42.191406 C 19.308594 42.453125 19.335938 42.941406 19.019531 43.308594 C 18.699219 43.679688 18.210938 43.722656 17.855469 43.75 L 17.8125 43.753906 C 17.742188 43.757812 17.667969 43.761719 17.589844 43.761719 C 16.914062 43.777344 16.917969 43.878906 16.917969 44.011719 C 16.917969 44.050781 16.921875 44.101562 16.929688 44.152344 C 16.953125 44.367188 17 44.769531 16.65625 45.015625 C 16.5625 45.085938 16.394531 45.164062 16.144531 45.148438 C 15.777344 45.125 15.484375 44.976562 15.226562 44.847656 C 15.003906 44.734375 14.8125 44.636719 14.609375 44.636719 L 14.605469 44.636719 C 14.507812 44.636719 14.429688 44.707031 14.394531 44.746094 C 14.308594 44.835938 14.261719 44.960938 14.269531 45.070312 C 14.285156 45.3125 14.496094 45.558594 14.777344 45.65625 C 15.15625 45.789062 15.578125 45.847656 16.023438 45.914062 C 16.601562 45.996094 17.195312 46.082031 17.75 46.339844 Z M 17.75 46.339844 " fill-opacity="1" fill-rule="evenodd"/><path fill="#ff66c4" d="M 16.613281 41.4375 C 12.792969 41.4375 9.679688 44.546875 9.679688 48.371094 C 9.679688 49.445312 9.925781 50.460938 10.363281 51.371094 C 10.402344 51.257812 10.433594 51.148438 10.433594 51.0625 C 10.433594 50.851562 10.433594 50.644531 10.4375 50.4375 C 10.441406 49.839844 10.832031 49.34375 11.410156 49.199219 C 11.984375 49.054688 12.5625 49.304688 12.847656 49.820312 L 12.855469 49.839844 L 12.855469 49.84375 C 12.972656 50.058594 13.050781 50.277344 13.128906 50.492188 C 13.28125 50.914062 13.390625 51.179688 13.640625 51.320312 C 13.792969 51.40625 13.988281 51.449219 14.195312 51.5 C 14.441406 51.558594 14.71875 51.621094 14.980469 51.769531 C 15.25 51.921875 15.449219 52.140625 15.632812 52.332031 C 15.734375 52.441406 15.835938 52.550781 15.9375 52.632812 C 16.121094 52.785156 16.390625 52.847656 16.46875 52.765625 C 16.570312 52.660156 16.511719 52.324219 16.46875 52.105469 C 16.269531 51.027344 16.308594 50.570312 16.546875 49.5625 C 16.578125 49.429688 16.640625 49.179688 16.828125 48.988281 C 16.976562 48.84375 17.148438 48.777344 17.277344 48.730469 C 17.304688 48.71875 17.332031 48.707031 17.359375 48.695312 C 17.660156 48.570312 17.882812 48.242188 17.890625 47.914062 C 17.894531 47.585938 17.683594 47.25 17.386719 47.113281 C 16.949219 46.910156 16.441406 46.835938 15.898438 46.757812 C 15.433594 46.6875 14.953125 46.621094 14.492188 46.457031 C 13.886719 46.246094 13.457031 45.710938 13.417969 45.125 C 13.394531 44.785156 13.527344 44.421875 13.773438 44.160156 C 14 43.917969 14.296875 43.785156 14.605469 43.785156 C 14.609375 43.785156 14.609375 43.785156 14.609375 43.785156 C 15.015625 43.785156 15.328125 43.945312 15.609375 44.085938 C 15.777344 44.171875 15.929688 44.246094 16.085938 44.28125 L 16.082031 44.25 C 16.074219 44.179688 16.066406 44.101562 16.0625 44.019531 C 16.054688 42.941406 17.15625 42.917969 17.570312 42.910156 C 17.636719 42.90625 17.699219 42.90625 17.738281 42.902344 L 17.785156 42.898438 C 18.015625 42.878906 18.28125 42.859375 18.371094 42.75 C 18.464844 42.644531 18.449219 42.367188 18.441406 42.238281 C 18.433594 42.050781 18.421875 41.859375 18.402344 41.671875 C 17.835938 41.519531 17.234375 41.4375 16.613281 41.4375 Z M 16.613281 41.4375 " fill-opacity="1" fill-rule="evenodd"/><g clip-path="url(#46d2d5afdc)"><path fill="#ff66c4" d="M 18.964844 40.949219 C 20.386719 41.398438 21.632812 42.246094 22.570312 43.363281 C 22.601562 43.390625 22.625 43.421875 22.648438 43.453125 C 23.746094 44.796875 24.402344 46.507812 24.402344 48.371094 C 24.402344 50.953125 23.140625 53.242188 21.203125 54.660156 C 21.171875 54.691406 21.136719 54.714844 21.101562 54.734375 C 19.832031 55.632812 18.285156 56.160156 16.613281 56.160156 C 13.882812 56.160156 11.476562 54.746094 10.085938 52.609375 C 10.066406 52.582031 10.046875 52.554688 10.03125 52.527344 C 9.269531 51.324219 8.828125 49.898438 8.828125 48.371094 C 8.828125 44.078125 12.320312 40.585938 16.617188 40.585938 C 17.40625 40.585938 18.171875 40.703125 18.890625 40.925781 C 18.914062 40.929688 18.941406 40.9375 18.964844 40.949219 Z M 6.238281 37.554688 L 6.238281 65.847656 L 26.636719 65.847656 C 26.835938 65.847656 26.992188 65.6875 26.992188 65.492188 L 26.992188 37.425781 C 26.808594 37.507812 26.605469 37.550781 26.394531 37.550781 Z M 11.71875 59.539062 L 21.511719 59.539062 C 21.746094 59.539062 21.9375 59.726562 21.9375 59.964844 C 21.9375 60.199219 21.746094 60.390625 21.511719 60.390625 L 11.71875 60.390625 C 11.484375 60.390625 11.292969 60.199219 11.292969 59.964844 C 11.292969 59.726562 11.484375 59.539062 11.71875 59.539062 Z M 13.664062 61.960938 L 19.570312 61.960938 C 19.804688 61.960938 19.996094 62.152344 19.996094 62.390625 C 19.996094 62.625 19.804688 62.816406 19.570312 62.816406 L 13.664062 62.816406 C 13.429688 62.816406 13.238281 62.625 13.238281 62.390625 C 13.238281 62.152344 13.425781 61.960938 13.664062 61.960938 Z M 13.664062 61.960938 " fill-opacity="1" fill-rule="evenodd"/></g><g fill="#000000" fill-opacity="1"><g transform="translate(95.487765, 104.266901)"><g><path d="M 5.421875 -3.203125 L 5.421875 -4.59375 C 5.421875 -5.644531 5.363281 -6.410156 5.25 -6.890625 C 5.132812 -7.378906 4.875 -7.625 4.46875 -7.625 C 4.226562 -7.625 4.03125 -7.554688 3.875 -7.421875 C 3.726562 -7.285156 3.625 -7.054688 3.5625 -6.734375 C 3.46875 -6.253906 3.421875 -5.515625 3.421875 -4.515625 L 3.421875 -3.234375 C 3.421875 -2.054688 3.453125 -1.347656 3.515625 -1.109375 C 3.585938 -0.867188 3.664062 -0.671875 3.75 -0.515625 C 3.863281 -0.253906 4.09375 -0.125 4.4375 -0.125 C 4.863281 -0.125 5.144531 -0.367188 5.28125 -0.859375 C 5.375 -1.210938 5.421875 -1.992188 5.421875 -3.203125 Z M 4.40625 0.15625 C 3.050781 0.15625 2.023438 -0.1875 1.328125 -0.875 C 0.640625 -1.570312 0.296875 -2.566406 0.296875 -3.859375 C 0.296875 -5.160156 0.664062 -6.160156 1.40625 -6.859375 C 2.15625 -7.554688 3.203125 -7.90625 4.546875 -7.90625 C 5.890625 -7.90625 6.890625 -7.582031 7.546875 -6.9375 C 8.210938 -6.289062 8.546875 -5.304688 8.546875 -3.984375 C 8.546875 -1.222656 7.164062 0.15625 4.40625 0.15625 Z M 4.40625 0.15625 "/></g></g></g><g fill="#000000" fill-opacity="1"><g transform="translate(104.330845, 104.266901)"><g><path d="M 9.6875 0 L 5.96875 0 L 5.796875 -1.1875 C 5.617188 -0.75 5.359375 -0.414062 5.015625 -0.1875 C 4.679688 0.0390625 4.175781 0.15625 3.5 0.15625 C 1.820312 0.15625 0.984375 -0.75 0.984375 -2.5625 L 0.984375 -7.453125 L 0.0625 -7.453125 L 0.0625 -7.75 L 4 -7.75 L 4 -2.171875 C 4 -1.515625 4.046875 -1.082031 4.140625 -0.875 C 4.234375 -0.664062 4.414062 -0.5625 4.6875 -0.5625 C 4.96875 -0.5625 5.21875 -0.726562 5.4375 -1.0625 C 5.65625 -1.40625 5.765625 -1.875 5.765625 -2.46875 L 5.765625 -7.453125 L 5.015625 -7.453125 L 5.015625 -7.75 L 8.796875 -7.75 L 8.796875 -0.296875 L 9.6875 -0.296875 Z M 9.6875 0 "/></g></g></g><g fill="#81c408" fill-opacity="1"><g transform="translate(87.594799, 104.266901)"><g><path d="M 6.46875 -6.046875 L 8.78125 -11.140625 L 7.125 -11.140625 L 7.125 -11.390625 L 10.34375 -11.390625 L 10.34375 -11.140625 L 9.265625 -11.140625 L 6.8125 -5.703125 L 6.8125 -0.3125 L 7.796875 -0.3125 L 7.796875 0 L 2.640625 0 L 2.640625 -0.3125 L 3.625 -0.3125 L 3.625 -5.390625 L 0.859375 -11.140625 L 0.09375 -11.140625 L 0.09375 -11.390625 L 5.3125 -11.390625 L 5.3125 -11.140625 L 4.25 -11.140625 Z M 6.46875 -6.046875 "/></g></g></g><g fill="#ff66c4" fill-opacity="1"><g transform="translate(116.119924, 103.330889)"><g><path d="M 6.90625 -3.28125 L 8.25 -7.984375 L 7.28125 -11.09375 L 6.34375 -11.09375 L 6.34375 -11.390625 L 11.390625 -11.390625 L 11.390625 -11.09375 L 10.4375 -11.09375 L 12.859375 -3.390625 L 14.8125 -11.09375 L 13.171875 -11.09375 L 13.171875 -11.390625 L 16.421875 -11.390625 L 16.421875 -11.09375 L 15.359375 -11.09375 L 12.359375 0.15625 L 10.90625 0.15625 L 8.5 -7.203125 L 6.375 0.15625 L 4.96875 0.15625 L 0.859375 -11.09375 L 0.09375 -11.09375 L 0.09375 -11.390625 L 5.390625 -11.390625 L 5.390625 -11.09375 L 4.25 -11.09375 Z M 6.90625 -3.28125 "/></g></g></g><g fill="#000000" fill-opacity="1"><g transform="translate(132.792703, 104.266901)"><g><path d="M 2.546875 -8.875 C 1.972656 -8.875 1.5625 -9.019531 1.3125 -9.3125 C 1.070312 -9.601562 0.953125 -9.96875 0.953125 -10.40625 C 0.953125 -10.84375 1.085938 -11.203125 1.359375 -11.484375 C 1.628906 -11.765625 2.035156 -11.90625 2.578125 -11.90625 C 3.117188 -11.90625 3.53125 -11.773438 3.8125 -11.515625 C 4.09375 -11.265625 4.234375 -10.898438 4.234375 -10.421875 C 4.234375 -9.953125 4.097656 -9.578125 3.828125 -9.296875 C 3.554688 -9.015625 3.128906 -8.875 2.546875 -8.875 Z M 0.09375 -7.75 L 4.09375 -7.75 L 4.09375 -0.296875 L 5 -0.296875 L 5 0 L 0.15625 0 L 0.15625 -0.296875 L 1.0625 -0.296875 L 1.0625 -7.453125 L 0.09375 -7.453125 Z M 0.09375 -7.75 "/></g></g></g><g fill="#000000" fill-opacity="1"><g transform="translate(137.955237, 104.266901)"><g><path d="M 5.484375 0 L 5.484375 -0.296875 L 6.234375 -0.296875 L 4.390625 -4.078125 L 4.09375 -3.984375 L 4.09375 -0.296875 L 4.828125 -0.296875 L 4.828125 0 L 0.15625 0 L 0.15625 -0.296875 L 1.0625 -0.296875 L 1.0625 -11.921875 L 0.09375 -11.921875 L 0.09375 -12.21875 L 4.09375 -12.21875 L 4.09375 -4.3125 L 4.34375 -4.40625 L 8.015625 -7.453125 L 6.484375 -7.453125 L 6.484375 -7.75 L 9.6875 -7.75 L 9.6875 -7.453125 L 8.546875 -7.453125 L 6.609375 -5.8125 L 9.421875 -0.296875 L 10.015625 -0.296875 L 10.015625 0 Z M 5.484375 0 "/></g></g></g><g fill="#000000" fill-opacity="1"><g transform="translate(148.052309, 104.266901)"><g><path d="M 2.546875 -8.875 C 1.972656 -8.875 1.5625 -9.019531 1.3125 -9.3125 C 1.070312 -9.601562 0.953125 -9.96875 0.953125 -10.40625 C 0.953125 -10.84375 1.085938 -11.203125 1.359375 -11.484375 C 1.628906 -11.765625 2.035156 -11.90625 2.578125 -11.90625 C 3.117188 -11.90625 3.53125 -11.773438 3.8125 -11.515625 C 4.09375 -11.265625 4.234375 -10.898438 4.234375 -10.421875 C 4.234375 -9.953125 4.097656 -9.578125 3.828125 -9.296875 C 3.554688 -9.015625 3.128906 -8.875 2.546875 -8.875 Z M 0.09375 -7.75 L 4.09375 -7.75 L 4.09375 -0.296875 L 5 -0.296875 L 5 0 L 0.15625 0 L 0.15625 -0.296875 L 1.0625 -0.296875 L 1.0625 -7.453125 L 0.09375 -7.453125 Z M 0.09375 -7.75 "/></g></g></g></svg>